ffmpeg version 3.4.6-0ubuntu0.18.04.1 Copyright (c) 2000-2019 the FFmpeg developers
  built with gcc 7 (Ubuntu 7.3.0-16ubuntu3)
  configuration: --prefix=/usr --extra-version=0ubuntu0.18.04.1 --toolchain=hardened --libdir=/usr/lib/x86_64-linux-gnu --incdir=/usr/include/x86_64-linux-gnu --enable-gpl --disable-stripping --enable-avresample --enable-avisynth --enable-gnutls --enable-ladspa --enable-libass --enable-libbluray --enable-libbs2b --enable-libcaca --enable-libcdio --enable-libflite --enable-libfontconfig --enable-libfreetype --enable-libfribidi --enable-libgme --enable-libgsm --enable-libmp3lame --enable-libmysofa --enable-libopenjpeg --enable-libopenmpt --enable-libopus --enable-libpulse --enable-librubberband --enable-librsvg --enable-libshine --enable-libsnappy --enable-libsoxr --enable-libspeex --enable-libssh --enable-libtheora --enable-libtwolame --enable-libvorbis --enable-libvpx --enable-libwavpack --enable-libwebp --enable-libx265 --enable-libxml2 --enable-libxvid --enable-libzmq --enable-libzvbi --enable-omx --enable-openal --enable-opengl --enable-sdl2 --enable-libdc1394 --enable-libdrm --enable-libiec61883 --enable-chromaprint --enable-frei0r --enable-libopencv --enable-libx264 --enable-shared
  libavutil      55. 78.100 / 55. 78.100
  libavcodec     57.107.100 / 57.107.100
  libavformat    57. 83.100 / 57. 83.100
  libavdevice    57. 10.100 / 57. 10.100
  libavfilter     6.107.100 /  6.107.100
  libavresample   3.  7.  0 /  3.  7.  0
  libswscale      4.  8.100 /  4.  8.100
  libswresample   2.  9.100 /  2.  9.100
  libpostproc    54.  7.100 / 54.  7.100
Input #0, image2pipe, from 'pipe:':
  Duration: N/A, bitrate: N/A
    Stream #0:0: Video: ppm, rgb24, 320x240, 20 fps, 20 tbr, 20 tbn, 20 tbc
Stream mapping:
  Stream #0:0 -> #0:0 (ppm (native) -> h264 (libx264))
[libx264 @ 0x555f40323f40] using cpu capabilities: MMX2 SSE2Fast SSSE3 SSE4.2 AVX FMA3 BMI2 AVX2
[libx264 @ 0x555f40323f40] profile High, level 1.3
[libx264 @ 0x555f40323f40] 264 - core 152 r2854 e9a5903 - H.264/MPEG-4 AVC codec - Copyleft 2003-2017 - http://www.videolan.org/x264.html - options: cabac=1 ref=3 deblock=1:0:0 analyse=0x3:0x113 me=hex subme=7 psy=1 psy_rd=1.00:0.00 mixed_ref=1 me_range=16 chroma_me=1 trellis=1 8x8dct=1 cqm=0 deadzone=21,11 fast_pskip=1 chroma_qp_offset=-2 threads=1 lookahead_threads=1 sliced_threads=0 nr=0 decimate=1 interlaced=0 bluray_compat=0 constrained_intra=0 bframes=3 b_pyramid=2 b_adapt=1 b_bias=0 direct=1 weightb=1 open_gop=0 weightp=2 keyint=250 keyint_min=20 scenecut=40 intra_refresh=0 rc_lookahead=40 rc=abr mbtree=1 bitrate=400 ratetol=1.0 qcomp=0.60 qpmin=0 qpmax=69 qpstep=4 ip_ratio=1.40 aq=1:1.00
Output #0, mp4, to './mission_records/570b4b39-5a08-423c-8781-0b4968626b15/video.mp4':
  Metadata:
    encoder         : Lavf57.83.100
    Stream #0:0: Video: h264 (libx264) (avc1 / 0x31637661), yuv420p, 320x240, q=-1--1, 400 kb/s, 20 fps, 10240 tbn, 20 tbc
    Metadata:
      encoder         : Lavc57.107.100 libx264
    Side data:
      cpb: bitrate max/min/avg: 0/0/400000 buffer size: 0 vbv_delay: -1
frame=   23 fps=0.0 q=0.0 size=       0kB time=00:00:00.00 bitrate=N/A speed=   0x    frame=   23 fps= 21 q=27.0 Lsize=      61kB time=00:00:01.00 bitrate= 500.3kbits/s speed=0.896x    
video:60kB audio:0kB subtitle:0kB other streams:0kB global headers:0kB muxing overhead: 1.555498%
[libx264 @ 0x555f40323f40] frame I:2     Avg QP:21.61  size:  3097
[libx264 @ 0x555f40323f40] frame P:19    Avg QP:21.08  size:  2776
[libx264 @ 0x555f40323f40] frame B:2     Avg QP:21.23  size:   970
[libx264 @ 0x555f40323f40] consecutive B-frames: 87.0%  0.0% 13.0%  0.0%
[libx264 @ 0x555f40323f40] mb I  I16..4: 41.8% 47.8% 10.3%
[libx264 @ 0x555f40323f40] mb P  I16..4: 30.8% 33.6%  6.1%  P16..4: 11.8%  6.6%  4.4%  0.0%  0.0%    skip: 6.7%
[libx264 @ 0x555f40323f40] mb B  I16..4:  5.0%  3.5%  0.0%  B16..8: 24.2% 14.8%  3.2%  direct: 6.7%  skip:42.7%  L0:52.4% L1:41.5% BI: 6.1%
[libx264 @ 0x555f40323f40] final ratefactor: 21.87
[libx264 @ 0x555f40323f40] 8x8 transform intra:47.6% inter:64.0%
[libx264 @ 0x555f40323f40] coded y,uvDC,uvAC intra: 37.5% 29.8% 2.7% inter: 27.0% 13.6% 0.0%
[libx264 @ 0x555f40323f40] i16 v,h,dc,p: 20% 50% 10% 19%
[libx264 @ 0x555f40323f40] i8 v,h,dc,ddl,ddr,vr,hd,vl,hu:  5% 32% 35%  3%  4%  2%  9%  3%  7%
[libx264 @ 0x555f40323f40] i4 v,h,dc,ddl,ddr,vr,hd,vl,hu:  7% 33% 25%  5%  7%  4% 10%  3%  8%
[libx264 @ 0x555f40323f40] i8c dc,h,v,p: 52% 40%  1%  7%
[libx264 @ 0x555f40323f40] Weighted P-Frames: Y:31.6% UV:10.5%
[libx264 @ 0x555f40323f40] ref P L0: 72.4%  8.3% 11.3%  6.5%  1.6%
[libx264 @ 0x555f40323f40] ref B L0: 94.5%  4.5%  1.0%
[libx264 @ 0x555f40323f40] kb/s:423.54
